<mxfile host="app.diagrams.net" agent="Mozilla/5.0 (Windows NT 10.0; Win64; x64) AppleWebKit/537.36 (KHTML, like Gecko) Chrome/130.0.0.0 Safari/537.36" version="24.8.4">
  <diagram name="Page-1" id="c4acf3e9-155e-7222-9cf6-157b1a14988f">
    <mxGraphModel dx="880" dy="484" grid="1" gridSize="10" guides="1" tooltips="1" connect="1" arrows="1" fold="1" page="1" pageScale="1" pageWidth="850" pageHeight="1100" background="none" math="0" shadow="0">
      <root>
        <mxCell id="0" />
        <mxCell id="1" parent="0" />
        <mxCell id="ABv4TpapbokIrNpsk8yo-3" value="Recurso Educativo" style="swimlane;whiteSpace=wrap;html=1;strokeColor=#808080;fillColor=#808080;" vertex="1" parent="1">
          <mxGeometry x="60" y="50" width="240" height="260" as="geometry" />
        </mxCell>
        <mxCell id="ABv4TpapbokIrNpsk8yo-5" value="- titulo: String" style="text;strokeColor=#000000;fillColor=#666666;align=left;verticalAlign=middle;spacingLeft=4;spacingRight=4;overflow=hidden;points=[[0,0.5],[1,0.5]];portConstraint=eastwest;rotatable=0;whiteSpace=wrap;html=1;" vertex="1" parent="ABv4TpapbokIrNpsk8yo-3">
          <mxGeometry x="10" y="30" width="220" height="30" as="geometry" />
        </mxCell>
        <mxCell id="ABv4TpapbokIrNpsk8yo-9" value="- contenido: String" style="text;strokeColor=#000000;fillColor=#666666;align=left;verticalAlign=middle;spacingLeft=4;spacingRight=4;overflow=hidden;points=[[0,0.5],[1,0.5]];portConstraint=eastwest;rotatable=0;whiteSpace=wrap;html=1;" vertex="1" parent="ABv4TpapbokIrNpsk8yo-3">
          <mxGeometry x="10" y="60" width="220" height="30" as="geometry" />
        </mxCell>
        <mxCell id="ABv4TpapbokIrNpsk8yo-10" value="- dificultad: int" style="text;strokeColor=#000000;fillColor=#666666;align=left;verticalAlign=middle;spacingLeft=4;spacingRight=4;overflow=hidden;points=[[0,0.5],[1,0.5]];portConstraint=eastwest;rotatable=0;whiteSpace=wrap;html=1;" vertex="1" parent="ABv4TpapbokIrNpsk8yo-3">
          <mxGeometry x="10" y="90" width="220" height="30" as="geometry" />
        </mxCell>
        <mxCell id="ABv4TpapbokIrNpsk8yo-11" value="- tipo: TipoRecurso" style="text;strokeColor=#000000;fillColor=#666666;align=left;verticalAlign=middle;spacingLeft=4;spacingRight=4;overflow=hidden;points=[[0,0.5],[1,0.5]];portConstraint=eastwest;rotatable=0;whiteSpace=wrap;html=1;" vertex="1" parent="ABv4TpapbokIrNpsk8yo-3">
          <mxGeometry x="10" y="120" width="220" height="30" as="geometry" />
        </mxCell>
      </root>
    </mxGraphModel>
  </diagram>
</mxfile>
